<svg xmlns="http://www.w3.org/2000/svg" viewBox="0 0 200 230" width="200" height="230">
  <title>Legate seal</title>
  <desc>An engraved seal: a ring violet on the private left and gold on the public right, three encrypted intents entering, a six-bladed aperture, and one netted order leaving through the milled edge.</desc>

  <circle cx="100" cy="100" r="96" fill="none" stroke="#6b5220" stroke-width="0.7"/>
  <circle cx="100" cy="100" r="92" fill="none" stroke="#c98f2e" stroke-width="2.4" stroke-linecap="round" stroke-dasharray="0.01 6.4"/>
  <circle cx="100" cy="100" r="87" fill="none" stroke="#e0a83d" stroke-width="7" stroke-dasharray="1.1 6.5"/>
  <circle cx="100" cy="100" r="81.5" fill="none" stroke="#e0a83d" stroke-width="1.3"/>
  <path d="M100 24 A76 76 0 0 1 100 176" fill="none" stroke="#e0a83d" stroke-width="2"/>
  <path d="M100 24 A76 76 0 0 0 100 176" fill="none" stroke="#a78bfa" stroke-width="2"/>
  <circle cx="100" cy="100" r="70.5" fill="none" stroke="#6b5220" stroke-width="0.5" stroke-dasharray="3 4"/>
  <circle cx="100" cy="100" r="67" fill="#121215" stroke="#8a6a26" stroke-width="0.5"/>
  <circle cx="100" cy="100" r="61" fill="none" stroke="#6b5220" stroke-width="12" stroke-dasharray="0.9 7.1"/>
  <circle cx="100" cy="100" r="55" fill="none" stroke="#8a6a26" stroke-width="0.55"/>

  <g fill="#17171b" stroke="#b8862c" stroke-width="0.8" stroke-linejoin="round">
    <path d="M100 45 A55 55 0 0 1 147.63 72.5 L121.65 87.5 A25 25 0 0 0 100 75 Z"/>
    <path d="M100 45 A55 55 0 0 1 147.63 72.5 L121.65 87.5 A25 25 0 0 0 100 75 Z" transform="rotate(60 100 100)"/>
    <path d="M100 45 A55 55 0 0 1 147.63 72.5 L121.65 87.5 A25 25 0 0 0 100 75 Z" transform="rotate(120 100 100)"/>
    <path d="M100 45 A55 55 0 0 1 147.63 72.5 L121.65 87.5 A25 25 0 0 0 100 75 Z" transform="rotate(180 100 100)"/>
    <path d="M100 45 A55 55 0 0 1 147.63 72.5 L121.65 87.5 A25 25 0 0 0 100 75 Z" transform="rotate(240 100 100)"/>
    <path d="M100 45 A55 55 0 0 1 147.63 72.5 L121.65 87.5 A25 25 0 0 0 100 75 Z" transform="rotate(300 100 100)"/>
  </g>

  <circle cx="100" cy="100" r="25" fill="none" stroke="#8a6a26" stroke-width="0.55"/>
  <circle cx="100" cy="100" r="28" fill="none" stroke="#6b5220" stroke-width="1.8" stroke-linecap="round" stroke-dasharray="0.01 5.9"/>

  <g fill="#c98f2e">
    <path d="M167.88 25.12 L174.88 32.12 L167.88 39.12 L160.88 32.12 Z"/>
    <path d="M32.12 25.12 L39.12 32.12 L32.12 39.12 L25.12 32.12 Z"/>
  </g>

  <g stroke="#a78bfa" stroke-width="2.4" stroke-linecap="round" fill="none">
    <path d="M81 91 L94 100"/>
    <path d="M81 100 L94 100"/>
    <path d="M81 109 L94 100"/>
  </g>
  <circle cx="96" cy="100" r="5.8" fill="none" stroke="#a78bfa" stroke-width="1"/>
  <circle cx="96" cy="100" r="3.4" fill="#f0bd58"/>
  <path d="M96 100 L196 100" fill="none" stroke="#f0bd58" stroke-width="3.4" stroke-linecap="round"/>

  <g stroke="#8a6a26" stroke-width="1.1" fill="none">
    <path d="M62 196 Q78 216 100 222"/>
    <path d="M138 196 Q122 216 100 222"/>
  </g>
  <g fill="#8a6a26">
    <ellipse cx="65" cy="201" rx="7" ry="3" transform="rotate(-52 65 201)"/>
    <ellipse cx="73" cy="208" rx="7" ry="3" transform="rotate(-42 73 208)"/>
    <ellipse cx="82" cy="214" rx="7" ry="3" transform="rotate(-28 82 214)"/>
    <ellipse cx="91" cy="219" rx="6.5" ry="2.8" transform="rotate(-16 91 219)"/>
    <ellipse cx="135" cy="201" rx="7" ry="3" transform="rotate(52 135 201)"/>
    <ellipse cx="127" cy="208" rx="7" ry="3" transform="rotate(42 127 208)"/>
    <ellipse cx="118" cy="214" rx="7" ry="3" transform="rotate(28 118 214)"/>
    <ellipse cx="109" cy="219" rx="6.5" ry="2.8" transform="rotate(16 109 219)"/>
    <path d="M100 218 L104 222 L100 226 L96 222 Z"/>
  </g>
</svg>
